<svg width="180" height="180" viewBox="0 0 180 180" xmlns="http://www.w3.org/2000/svg">
  <rect width="180" height="180" rx="40" fill="#0f172a" />
  <circle cx="90" cy="90" r="60" fill="#f97316" />
  <path
    fill="#fffcef"
    d="M90 48c-18.225 0-33 14.775-33 33 0 24.825 30.9 59.55 31.22 59.91a2.5 2.5 0 0 0 3.56 0C92.1 140.55 123 105.825 123 81c0-18.225-14.775-33-33-33Zm0 74.7c-7.92-9.54-22-30.015-22-41.7 0-12.15 9.85-22 22-22s22 9.85 22 22c0 11.685-14.08 32.16-22 41.7Z"
  />
  <path
    fill="#fffcef"
    d="M77 86c0-7.18 5.82-13 13-13s13 5.82 13 13-5.82 13-13 13-13-5.82-13-13Z"
    opacity="0.9"
  />
  <path
    fill="#fffcef"
    d="M61 129c-5.523 0-10 4.477-10 10v9h78v-9c0-5.523-4.477-10-10-10H61Z"
    opacity="0.85"
  />
</svg>
